<svg width="85" height="75" viewBox="0 0 85 75" fill="none" xmlns="http://www.w3.org/2000/svg">
<g id="go-logo-svgrepo-com 11" clip-path="url(#clip0_10_140)">
<g id="Group">
<path id="Vector" fill-rule="evenodd" clip-rule="evenodd" d="M74.375 75.0469H79.6875V37.4532C79.6875 19.35 63.0381 4.68286 42.5 4.68286C22.0044 4.68286 5.3125 19.3547 5.3125 37.4532V75.0469H10.625V37.4532C10.625 21.9563 24.9209 9.37036 42.5 9.37036C60.1056 9.37036 74.375 21.9422 74.375 37.4532V75.0469ZM18.4875 12.45C16.5431 10.5657 13.7381 9.37974 10.625 9.37974C4.75469 9.37974 0 13.575 0 18.7547C0 22.8235 2.9325 26.2829 7.03906 27.5813C7.58094 26.0766 8.23969 24.6235 9.01 23.2219C6.86906 22.6172 5.31781 20.8454 5.31781 18.7547C5.31781 16.1672 7.69781 14.0672 10.6303 14.0672C12.2559 14.0672 13.7116 14.7141 14.6891 15.7266C15.8684 14.5547 17.1381 13.4625 18.4981 12.45H18.4875ZM66.5231 12.4407C68.4675 10.561 71.2672 9.37974 74.3803 9.37974C80.2506 9.37974 85.0053 13.575 85.0053 18.7547C85.0053 22.8188 82.0728 26.2829 77.9716 27.5813C77.435 26.0766 76.7763 24.6188 76.0059 23.2172C78.1469 22.6125 79.6928 20.8407 79.6928 18.7547C79.6928 16.1672 77.3128 14.0672 74.3803 14.0672C72.76 14.0672 71.3044 14.7094 70.3322 15.7219C69.1528 14.55 67.8831 13.4579 66.5231 12.4454" fill="#FEB62A"/>
<path id="Vector_2" fill-rule="evenodd" clip-rule="evenodd" d="M30.4194 37.6875H38.6909V38.2688C38.6909 39.5953 38.5156 40.7719 38.1597 41.7937C37.8144 42.7406 37.23 43.6266 36.4066 44.4469C34.5472 46.2938 32.1831 47.2172 29.3144 47.2172C26.5147 47.2172 24.1134 46.3266 22.1159 44.5406C20.1184 42.75 19.1197 40.5984 19.1197 38.0859C19.1197 35.5219 20.1344 33.3516 22.1691 31.5656C24.1984 29.775 26.6741 28.875 29.5853 28.875C31.1525 28.875 32.6134 29.1563 33.9681 29.7234C35.2644 30.2859 36.5394 31.2047 37.7931 32.4703L35.6416 34.2891C34 32.3578 31.9972 31.3922 29.6384 31.3922C27.5188 31.3922 25.7444 32.0391 24.3259 33.3281C22.8916 34.5938 22.1744 36.1828 22.1744 38.0859C22.1744 40.0547 22.9766 41.6766 24.5756 42.9469C26.0738 44.1281 27.6941 44.7188 29.4366 44.7188C30.9241 44.7188 32.2575 44.2781 33.4422 43.3922C34.6269 42.5016 35.2856 41.4328 35.4238 40.1906H30.43V37.6828L30.4194 37.6875ZM45.7513 37.9688C45.7513 35.4844 46.7819 33.3469 48.8484 31.5609C50.9044 29.775 53.38 28.8844 56.2647 28.8844C59.1175 28.8844 61.5666 29.7844 63.6066 31.5844C65.6572 33.3844 66.6772 35.5453 66.6772 38.0719C66.6772 40.6125 65.6466 42.7594 63.5906 44.5359C61.5241 46.3125 59.0325 47.2031 56.1106 47.2031C53.5234 47.2031 51.2072 46.4156 49.1459 44.8359C46.8828 43.0875 45.7459 40.8 45.7459 37.9688H45.7513ZM48.7953 38.0016C48.7953 39.9563 49.5391 41.5594 51.0266 42.8203C52.5034 44.0813 54.2141 44.7094 56.1478 44.7094C58.2463 44.7094 60.0206 44.0672 61.4603 42.7875C62.9053 41.4891 63.6278 39.9141 63.6278 38.0531C63.6278 36.1688 62.9159 34.5891 61.4869 33.3187C60.0684 32.0391 58.3153 31.3969 56.2222 31.3969C54.1397 31.3969 52.3813 32.0391 50.9469 33.3187C49.5125 34.5844 48.7953 36.15 48.7953 38.0062V38.0016ZM47.8178 56.3719C50.6069 56.4938 52.1316 56.6672 52.1316 56.6672C53.5712 56.7844 53.8528 56.2172 52.7478 55.3875C52.7478 55.3875 48.6306 51.5766 42.4788 51.5766C36.3216 51.5766 32.2628 55.3875 32.2628 55.3875C31.1419 56.2031 31.45 56.7937 32.9003 56.6672C32.9003 56.6672 34.4197 56.4938 37.2034 56.3719V58.6078C37.2034 59.8641 38.3934 60.9516 39.8597 60.9516C41.2834 60.9516 42.5159 59.9063 42.5159 58.6172V57.4359V58.6078C42.5159 59.8641 43.7059 60.9516 45.1722 60.9516C46.5959 60.9516 47.8284 59.9063 47.8284 58.6172V56.3766L47.8178 56.3719ZM42.5159 51.5812C45.4484 51.5812 47.8284 50.5312 47.8284 49.2375C47.8284 47.9437 45.4484 46.8937 42.5159 46.8937C39.5834 46.8937 37.2034 47.9437 37.2034 49.2375C37.2034 50.5312 39.5834 51.5812 42.5159 51.5812Z" fill="#FEB62A"/>
</g>
</g>
<defs>
<clipPath id="clip0_10_140">
<rect width="85" height="75" fill="white"/>
</clipPath>
</defs>
</svg>
